<?xml version="1.0" encoding="UTF-8" standalone="no"?>
<!-- Created with Inkscape (http://www.inkscape.org/) -->

<svg
   version="1.1"
   id="svg2"
   xml:space="preserve"
   width="1587.4"
   height="1122.52"
   viewBox="0 0 1587.4 1122.52"
   sodipodi:docname="sefa로고_원본 (1).ai"
   xmlns:inkscape="http://www.inkscape.org/namespaces/inkscape"
   xmlns:sodipodi="http://sodipodi.sourceforge.net/DTD/sodipodi-0.dtd"
   xmlns="http://www.w3.org/2000/svg"
   xmlns:svg="http://www.w3.org/2000/svg"><defs
     id="defs6"><clipPath
       clipPathUnits="userSpaceOnUse"
       id="clipPath16"><path
         d="M 0,841.89 H 1190.551 V 0 H 0 Z"
         id="path14" /></clipPath></defs><sodipodi:namedview
     id="namedview4"
     pagecolor="#ffffff"
     bordercolor="#666666"
     borderopacity="1.0"
     inkscape:pageshadow="2"
     inkscape:pageopacity="0.0"
     inkscape:pagecheckerboard="0" /><g
     id="g8"
     inkscape:groupmode="layer"
     inkscape:label="sefa로고_원본 (1)"
     transform="matrix(1.3333333,0,0,-1.3333333,0,1122.52)"><g
       id="g10"><g
         id="g12"
         clip-path="url(#clipPath16)"><g
           id="g18"
           transform="translate(575.9429,481.2339)"><path
             d="m 0,0 c -0.611,-3.307 -1.017,-6.623 -0.554,-9.269 0.214,-1.31 0.701,-2.337 1.252,-2.924 0.274,-0.3 0.57,-0.502 0.892,-0.67 0.35,-0.177 0.791,-0.423 1.214,-0.55 1.682,-0.563 3.978,-0.558 6.607,-0.053 1.301,0.231 2.666,0.603 4.039,1.036 1.383,0.421 2.783,0.924 4.185,1.492 1.398,0.583 2.82,1.158 4.23,1.818 1.481,0.674 2.671,1.308 3.891,1.982 2.414,1.371 4.6,2.997 6.551,4.788 1.929,1.82 3.594,3.837 4.984,6.024 1.355,2.212 2.488,4.526 3.643,6.973 0.575,1.227 1.132,2.498 1.685,3.827 l 0.784,2.042 c 0.139,0.345 0.254,0.699 0.375,1.054 l 0.185,0.535 0.175,0.4 c 0.451,1.042 0.71,2.091 0.8,2.965 0.054,0.871 0.123,1.518 -0.243,2.054 -0.354,0.582 -1.537,0.892 -2.885,0.615 -0.645,-0.112 -1.405,-0.397 -2.144,-0.706 -0.735,-0.308 -1.448,-0.673 -2.14,-1.079 -2.795,-1.613 -5.045,-4.062 -6.84,-6.733 C 29.789,14.279 29.01,12.857 28.374,11.377 27.732,9.921 27.371,8.501 27.305,6.94 c -0.138,-3.078 0.744,-6.255 2.32,-8.999 0.389,-0.688 0.846,-1.34 1.313,-1.966 0.427,-0.539 0.963,-1.033 1.569,-1.473 1.226,-0.876 2.69,-1.549 4.211,-2.1 3.065,-1.098 6.358,-1.737 9.693,-2.327 13.343,-2.358 26.892,-3.407 40.455,-3.673 13.564,-0.265 27.153,0.243 40.719,1.052 13.533,0.861 27.012,2.269 40.135,4.985 3.276,0.698 6.532,1.442 9.753,2.291 1.609,0.433 3.215,0.868 4.801,1.361 1.594,0.468 3.177,0.959 4.743,1.492 1.577,0.501 3.133,1.057 4.68,1.625 1.561,0.531 3.076,1.181 4.597,1.797 3.045,1.234 5.992,2.588 8.824,4.099 l 5.791,3.093 5.583,-12.947 -6.194,-2.16 c -6.86,-2.394 -13.71,-4.105 -20.581,-5.595 -1.717,-0.376 -3.44,-0.705 -5.166,-1.008 -1.719,-0.333 -3.449,-0.591 -5.174,-0.865 -3.445,-0.562 -6.897,-1.011 -10.347,-1.406 -13.8,-1.59 -27.57,-2.046 -41.265,-2.113 -13.67,-0.061 -27.349,0.025 -41.025,0.705 -13.667,0.681 -27.346,1.97 -40.829,4.479 -3.365,0.609 -6.793,1.269 -10.149,2.479 -1.674,0.615 -3.342,1.366 -4.892,2.475 -0.769,0.563 -1.504,1.227 -2.132,2.028 -0.551,0.738 -1.069,1.487 -1.517,2.282 -1.829,3.142 -2.911,6.767 -2.785,10.514 0.046,1.85 0.526,3.792 1.25,5.454 0.694,1.655 1.543,3.242 2.525,4.74 1.965,3.011 4.484,5.573 7.173,8.003 0.681,0.602 1.385,1.184 2.104,1.763 0.726,0.555 1.437,1.14 2.361,1.695 0.899,0.536 1.903,1.043 3.084,1.36 1.181,0.293 2.554,0.441 3.982,0.171 1.423,-0.262 2.838,-0.908 4.008,-1.793 1.163,-0.886 2.106,-1.969 2.832,-3.088 1.455,-2.256 2.213,-4.657 2.622,-7.013 l 0.135,-0.878 0.101,-0.74 c 0.064,-0.494 0.133,-0.991 0.174,-1.491 0.116,-1.003 0.131,-2.01 0.155,-3.028 0.028,-2.038 -0.171,-4.097 -0.56,-6.137 -0.774,-4.086 -2.471,-8.044 -4.792,-11.568 -2.281,-3.556 -5.126,-6.736 -8.326,-9.401 -3.181,-2.695 -6.74,-4.836 -10.426,-6.494 -1.829,-0.846 -3.787,-1.524 -5.488,-2.065 -1.77,-0.56 -3.567,-1.106 -5.427,-1.522 -1.856,-0.427 -3.755,-0.788 -5.709,-1.053 -1.966,-0.231 -3.98,-0.37 -6.081,-0.323 -2.098,0.039 -4.28,0.312 -6.52,0.911 -2.227,0.589 -4.533,1.622 -6.535,3.197 -1.021,0.781 -1.883,1.653 -2.702,2.711 -0.834,1.083 -1.501,2.311 -1.931,3.562 -0.856,2.528 -0.804,4.981 -0.408,7.061 0.41,2.102 1.143,3.941 2.008,5.63 0.88,1.682 1.886,3.221 3.025,4.637 l 1.043,1.298 2.19,-1.021 z"
             style="fill:#000000;fill-opacity:1;fill-rule:nonzero;stroke:none"
             id="path20" /></g><g
           id="g22"
           transform="translate(710.2012,533.9448)"><path
             d="m 0,0 c 1.559,3.548 2.889,7.211 3.947,10.924 1.032,3.705 1.844,7.528 1.772,11.258 -0.056,1.841 -0.369,3.686 -1.219,5.099 -0.416,0.706 -0.966,1.28 -1.624,1.691 -0.326,0.215 -0.679,0.37 -1.067,0.513 -0.428,0.131 -0.845,0.286 -1.283,0.376 -3.458,0.875 -7.143,0.321 -10.336,-1.193 -1.617,-0.73 -3.051,-1.753 -4.503,-2.915 -1.426,-1.153 -2.768,-2.417 -4.021,-3.775 -2.505,-2.718 -4.711,-5.741 -6.656,-8.95 -3.893,-6.436 -6.911,-13.44 -9.885,-20.62 -2.936,-7.072 -5.526,-14.325 -8.121,-21.663 l -4.006,-11.037 c -1.327,-3.681 -2.869,-7.425 -4.318,-11.016 -5.784,-14.361 -11.623,-28.746 -17.808,-43.068 -6.172,-14.33 -12.707,-28.582 -19.943,-42.532 -7.215,-13.972 -15.149,-27.676 -23.916,-40.847 -1.086,-1.652 -2.223,-3.274 -3.324,-4.914 l -1.7,-2.433 -1.747,-2.47 c -2.464,-3.351 -5.205,-6.489 -8.294,-9.343 -3.077,-2.85 -6.55,-5.416 -10.544,-7.246 -3.965,-1.818 -8.596,-2.793 -13.09,-2.139 -1.12,0.139 -2.214,0.403 -3.284,0.713 -1.042,0.328 -2.038,0.7 -3.03,1.152 -1.974,0.896 -3.869,2.048 -5.525,3.506 -1.661,1.448 -3.073,3.187 -4.123,5.092 -1.057,1.904 -1.758,3.958 -2.151,6.025 -0.775,4.147 -0.422,8.316 0.668,12.195 0.557,1.94 1.299,3.818 2.257,5.583 0.971,1.744 2.117,3.455 3.767,4.673 0.128,0.094 0.309,0.067 0.403,-0.061 0.088,-0.119 0.071,-0.282 -0.033,-0.381 l -0.011,-0.009 c -1.358,-1.291 -2.242,-3.03 -2.943,-4.777 -0.69,-1.764 -1.163,-3.61 -1.452,-5.471 -0.588,-3.709 -0.484,-7.529 0.57,-10.967 1.033,-3.445 3.098,-6.392 5.897,-8.311 1.388,-0.975 2.949,-1.707 4.593,-2.245 0.815,-0.274 1.681,-0.483 2.519,-0.659 0.818,-0.161 1.636,-0.292 2.458,-0.32 3.282,-0.195 6.527,0.762 9.495,2.43 2.973,1.68 5.68,4.02 8.094,6.676 2.42,2.656 4.53,5.659 6.393,8.78 l 1.395,2.453 1.413,2.511 c 0.914,1.692 1.841,3.372 2.729,5.078 7.174,13.601 13.364,27.705 19.463,41.893 6.059,14.224 12.108,28.474 18.313,42.732 6.212,14.258 12.643,28.512 19.788,42.494 l 5.181,10.329 5.137,10.466 c 3.479,7.004 7.033,14.072 10.952,20.99 3.878,6.793 7.841,13.779 12.8,20.182 2.478,3.195 5.165,6.28 8.242,9.001 1.532,1.362 3.167,2.625 4.893,3.757 1.705,1.111 3.586,2.187 5.595,2.898 3.974,1.475 8.494,1.745 12.52,0.335 C 1.804,32.288 2.286,32.064 2.773,31.864 3.281,31.636 3.812,31.362 4.278,31.011 5.231,30.329 6.003,29.394 6.511,28.39 7.543,26.358 7.708,24.2 7.657,22.175 7.479,18.096 6.39,14.266 5.113,10.555 3.806,6.848 2.247,3.258 0.456,-0.225 0.393,-0.35 0.239,-0.398 0.114,-0.335 c -0.12,0.063 -0.17,0.206 -0.117,0.328 z"
             style="fill:#000000;fill-opacity:1;fill-rule:nonzero;stroke:none"
             id="path24" /></g><g
           id="g26"
           transform="translate(735.7461,443.2407)"><path
             d="m 0,0 c -0.488,0 -0.97,-0.129 -1.402,-0.382 -1.332,-0.776 -1.785,-2.493 -1.008,-3.825 0.376,-0.645 0.981,-1.105 1.703,-1.295 0.724,-0.191 1.476,-0.089 2.121,0.289 1.332,0.776 1.783,2.492 1.007,3.824 C 2.045,-0.744 1.439,-0.283 0.718,-0.094 0.48,-0.031 0.239,0 0,0 m 0.02,-11.598 c -0.751,0 -1.508,0.097 -2.254,0.293 -2.273,0.599 -4.176,2.046 -5.36,4.076 -2.442,4.19 -1.021,9.586 3.168,12.031 2.03,1.182 4.401,1.505 6.671,0.907 C 4.518,5.11 6.421,3.663 7.604,1.633 10.047,-2.557 8.626,-7.953 4.437,-10.396 3.074,-11.191 1.558,-11.598 0.02,-11.598"
             style="fill:#000000;fill-opacity:1;fill-rule:nonzero;stroke:none"
             id="path28" /></g><g
           id="g30"
           transform="translate(744.5078,440.3794)"><path
             d="M 0,0 C 0.03,-0.218 0.032,-0.335 0.037,-0.463 0.045,-0.597 0.046,-0.721 0.043,-0.836 0.041,-1.072 0.039,-1.311 0.021,-1.533 c -0.022,-0.455 -0.079,-0.895 -0.135,-1.33 -0.131,-0.869 -0.324,-1.713 -0.579,-2.532 -0.515,-1.633 -1.264,-3.172 -2.255,-4.496 -0.995,-1.311 -2.114,-2.483 -3.414,-3.351 -0.604,-0.487 -1.314,-0.816 -1.956,-1.201 -0.671,-0.346 -1.376,-0.614 -2.044,-0.911 l -0.628,1.088 c 0.525,0.444 1.074,0.846 1.563,1.303 0.457,0.493 0.973,0.917 1.348,1.459 0.858,0.988 1.447,2.142 1.91,3.285 0.457,1.155 0.674,2.375 0.721,3.579 0.021,0.604 -0.005,1.204 -0.073,1.791 -0.042,0.292 -0.081,0.583 -0.144,0.859 -0.05,0.255 -0.142,0.6 -0.191,0.685 z"
             style="fill:#000000;fill-opacity:1;fill-rule:nonzero;stroke:none"
             id="path32" /></g><g
           id="g34"
           transform="translate(813.1035,527.7358)"><path
             d="m 0,0 c -0.232,-0.043 -0.449,-0.198 -0.677,-0.44 -0.858,-0.914 -1.736,0.246 -2.44,1.027 -1.084,1.203 -1.945,1.291 -2.965,-0.09 -0.489,-0.663 -1.011,-1.422 -1.684,-1.462 -0.956,-0.056 -1.647,0.722 -2.478,-0.338 -0.416,-0.529 -0.754,-1.242 -1.047,-1.926 -0.522,-1.219 -0.796,-2.649 -0.733,-4.123 0.171,-4.1 4.485,-19.217 6.411,-19.136 l 3.979,0.167 C 0.292,-26.24 3.837,-10.793 3.664,-6.692 3.592,-4.969 3.076,-3.284 2.29,-1.987 1.858,-1.274 1.272,-0.543 0.676,-0.169 0.426,-0.013 0.207,0.038 0,0"
             style="fill:#e25a7a;fill-opacity:1;fill-rule:nonzero;stroke:none"
             id="path36" /></g><g
           id="g38"
           transform="translate(783.9766,514.8569)"><path
             d="m 0,0 c -0.079,-0.223 -0.054,-0.488 0.043,-0.807 0.361,-1.199 -1.081,-1.38 -2.11,-1.599 -1.584,-0.338 -2.09,-1.039 -1.405,-2.613 0.329,-0.755 0.726,-1.586 0.424,-2.189 -0.429,-0.855 -1.448,-1.065 -0.946,-2.315 0.251,-0.625 0.699,-1.274 1.144,-1.871 0.794,-1.061 1.897,-2.012 3.204,-2.696 3.637,-1.9 18.886,-5.724 19.779,-4.016 l 1.845,3.53 C 22.87,-12.867 11.265,-2.074 7.628,-0.173 6.099,0.626 4.382,1.021 2.865,0.99 2.033,0.972 1.106,0.83 0.484,0.5 0.224,0.362 0.07,0.198 0,0"
             style="fill:#e25a7a;fill-opacity:1;fill-rule:nonzero;stroke:none"
             id="path40" /></g><g
           id="g42"
           transform="translate(780.5664,483.1919)"><path
             d="m 0,0 c 0.153,-0.18 0.396,-0.29 0.72,-0.366 1.219,-0.286 0.655,-1.626 0.33,-2.627 -0.499,-1.54 -0.145,-2.329 1.56,-2.523 0.82,-0.092 1.738,-0.165 2.108,-0.726 0.527,-0.8 0.199,-1.788 1.533,-1.979 0.666,-0.094 1.452,-0.031 2.191,0.057 1.317,0.157 2.692,0.636 3.937,1.427 3.465,2.199 14.4,13.493 13.367,15.12 l -2.135,3.363 C 22.579,13.373 7.429,8.72 3.964,6.52 2.507,5.596 1.306,4.307 0.575,2.978 0.175,2.247 -0.166,1.374 -0.191,0.67 -0.202,0.375 -0.137,0.16 0,0"
             style="fill:#e25a7a;fill-opacity:1;fill-rule:nonzero;stroke:none"
             id="path44" /></g><g
           id="g46"
           transform="translate(806.2832,464.4067)"><path
             d="m 0,0 c 0.232,0.043 0.45,0.198 0.678,0.44 0.857,0.914 1.735,-0.246 2.44,-1.027 1.084,-1.202 1.944,-1.291 2.964,0.09 0.49,0.663 1.012,1.422 1.684,1.462 0.956,0.056 1.647,-0.722 2.479,0.338 0.415,0.53 0.754,1.242 1.047,1.926 0.522,1.219 0.795,2.649 0.733,4.123 -0.172,4.1 -4.485,19.217 -6.411,19.136 L 1.634,26.321 C -0.291,26.24 -3.836,10.793 -3.664,6.692 -3.592,4.969 -3.076,3.284 -2.29,1.987 -1.858,1.274 -1.271,0.543 -0.675,0.169 -0.426,0.013 -0.206,-0.038 0,0"
             style="fill:#e25a7a;fill-opacity:1;fill-rule:nonzero;stroke:none"
             id="path48" /></g><g
           id="g50"
           transform="translate(835.4111,477.2856)"><path
             d="m 0,0 c 0.079,0.223 0.053,0.488 -0.043,0.807 -0.361,1.199 1.081,1.381 2.11,1.599 1.583,0.338 2.089,1.039 1.405,2.613 -0.33,0.755 -0.727,1.586 -0.425,2.189 0.429,0.856 1.449,1.065 0.947,2.315 -0.251,0.625 -0.699,1.275 -1.145,1.871 -0.794,1.061 -1.897,2.012 -3.203,2.696 -3.638,1.901 -18.886,5.724 -19.779,4.016 l -1.846,-3.53 c -0.892,-1.708 10.713,-12.502 14.351,-14.403 1.529,-0.799 3.245,-1.194 4.762,-1.162 0.833,0.017 1.76,0.159 2.382,0.489 0.26,0.138 0.414,0.302 0.484,0.5"
             style="fill:#e25a7a;fill-opacity:1;fill-rule:nonzero;stroke:none"
             id="path52" /></g><g
           id="g54"
           transform="translate(838.8213,508.9507)"><path
             d="m 0,0 c -0.154,0.18 -0.396,0.29 -0.721,0.366 -1.218,0.286 -0.654,1.626 -0.33,2.627 0.499,1.54 0.146,2.329 -1.559,2.523 -0.82,0.092 -1.738,0.165 -2.109,0.726 -0.527,0.8 -0.198,1.788 -1.532,1.979 C -6.917,8.315 -7.703,8.252 -8.442,8.164 -9.76,8.007 -11.134,7.528 -12.38,6.737 -15.845,4.538 -26.78,-6.756 -25.747,-8.383 l 2.135,-3.363 c 1.033,-1.627 16.183,3.026 19.648,5.226 1.457,0.925 2.657,2.213 3.388,3.543 0.401,0.73 0.741,1.603 0.767,2.307 C 0.202,-0.375 0.136,-0.16 0,0"
             style="fill:#e25a7a;fill-opacity:1;fill-rule:nonzero;stroke:none"
             id="path56" /></g><g
           id="g58"
           transform="translate(580.0786,519.6137)"><path
             d="m 0,0 c 4.32,0.588 8.224,2.318 11.166,4.887 3,2.51 4.994,5.908 6.196,9.47 1.221,3.565 1.651,7.376 1.338,11.051 -0.308,3.693 -1.267,7.201 -2.886,10.034 -1.616,2.861 -3.978,5.052 -6.752,6.856 -2.858,1.731 -6.187,2.976 -9.744,3.841 -1.801,0.388 -3.623,0.739 -5.508,0.93 l -1.382,0.162 -0.537,0.037 -0.624,0.024 c -0.847,0.033 -1.792,0.024 -2.731,0.007 -1.899,-0.05 -3.861,-0.196 -5.818,-0.403 -1.958,-0.196 -3.928,-0.444 -5.886,-0.758 -7.835,-1.299 -15.552,-3.393 -22.773,-6.466 -3.62,-1.516 -7.129,-3.237 -10.526,-5.147 l -2.51,-1.494 -2.443,-1.592 c -1.612,-1.085 -3.222,-2.184 -4.75,-3.389 -3.058,-2.404 -6.025,-4.957 -8.757,-7.787 l -2.021,-2.156 c -0.684,-0.713 -1.29,-1.495 -1.944,-2.241 -0.319,-0.381 -0.65,-0.746 -0.962,-1.141 l -0.915,-1.219 -1.863,-2.429 C -87.491,4.562 -91.78,-2.394 -93.944,-9.93 c -0.937,-3.749 -1.417,-7.618 -0.889,-11.403 0.153,-0.937 0.252,-1.907 0.58,-2.8 l 0.405,-1.381 0.562,-1.319 c 0.333,-0.914 0.869,-1.708 1.326,-2.568 0.542,-0.791 1.079,-1.615 1.737,-2.314 0.628,-0.746 1.319,-1.38 2.035,-1.938 l 2.588,-1.719 c 0.424,-0.302 0.874,-0.566 1.344,-0.796 l 1.39,-0.728 1.395,-0.733 1.452,-0.629 c 3.844,-1.773 7.98,-2.949 12.135,-4.047 8.327,-2.18 16.945,-3.441 25.248,-6.137 l 1.561,-0.488 1.54,-0.565 c 1.016,-0.402 2.08,-0.693 3.069,-1.179 l 3.029,-1.332 2.936,-1.577 c 0.245,-0.134 0.496,-0.258 0.737,-0.399 l 0.696,-0.465 1.406,-0.926 1.418,-0.932 1.328,-1.05 1.339,-1.06 c 0.445,-0.358 0.841,-0.769 1.265,-1.154 l 1.27,-1.174 c 0.431,-0.388 0.79,-0.839 1.191,-1.26 l 1.177,-1.296 c 0.398,-0.431 0.717,-0.919 1.082,-1.381 l 1.088,-1.401 c 0.358,-0.473 0.651,-0.984 0.982,-1.48 l 0.964,-1.513 c 0.299,-0.518 0.566,-1.051 0.858,-1.578 l 0.857,-1.602 0.725,-1.662 c 1.924,-4.466 3.066,-9.327 3.494,-14.258 0.438,-4.934 0.145,-9.95 -0.833,-14.815 -0.211,-1.232 -0.52,-2.428 -0.828,-3.632 -0.164,-0.593 -0.315,-1.219 -0.493,-1.787 l -0.545,-1.695 c -0.385,-1.121 -0.725,-2.275 -1.157,-3.375 l -1.327,-3.295 c -3.695,-8.725 -8.931,-16.579 -14.847,-23.679 -5.952,-7.086 -12.622,-13.472 -19.9,-19.038 -1.804,-1.407 -3.68,-2.728 -5.548,-4.045 -1.911,-1.266 -3.804,-2.542 -5.765,-3.727 l -2.954,-1.747 -2.997,-1.626 -2.99,-1.614 c -1.005,-0.521 -2.032,-1.002 -3.046,-1.502 -8.125,-3.97 -16.528,-7.181 -25.003,-9.868 -8.484,-2.677 -17.058,-4.81 -25.672,-6.512 l -6.476,-1.171 -6.497,-0.977 -6.516,-0.795 -6.537,-0.532 c -17.451,-1.096 -35.021,0.21 -52.028,4.424 -8.48,2.191 -16.795,5.28 -24.501,9.694 -3.823,2.252 -7.476,4.842 -10.827,7.829 -3.366,2.972 -6.297,6.473 -8.758,10.284 -1.282,1.881 -2.26,3.942 -3.277,5.982 -0.928,2.088 -1.689,4.246 -2.317,6.44 -1.198,4.402 -1.796,8.958 -1.778,13.507 0.061,9.098 2.498,18.13 6.671,26.135 4.219,8.004 10.025,15.024 16.666,20.985 6.705,5.903 14.275,10.781 22.378,14.453 8.109,3.661 16.76,6.057 25.552,7.189 4.395,0.59 8.844,0.742 13.253,0.599 2.209,-0.018 4.405,-0.247 6.601,-0.398 2.185,-0.284 4.378,-0.477 6.542,-0.892 8.664,-1.469 17.169,-4.129 24.905,-8.299 3.857,-2.105 7.456,-4.657 10.722,-7.564 3.197,-2.999 5.92,-6.445 8.094,-10.185 -2.496,3.547 -5.479,6.666 -8.79,9.371 -3.412,2.584 -7.052,4.824 -10.91,6.631 -7.757,3.516 -16.072,5.719 -24.511,6.684 -2.1,0.314 -4.225,0.409 -6.336,0.596 -2.12,0.055 -4.236,0.19 -6.352,0.117 -4.231,-0.037 -8.44,-0.376 -12.6,-1.044 -8.324,-1.308 -16.412,-3.899 -23.997,-7.487 -7.585,-3.601 -14.598,-8.347 -20.786,-13.959 -6.192,-5.592 -11.546,-12.134 -15.372,-19.455 -3.899,-7.269 -6.205,-15.349 -6.392,-23.56 -0.269,-8.183 1.583,-16.451 5.915,-23.441 2.121,-3.503 4.684,-6.784 7.722,-9.627 3.018,-2.859 6.374,-5.388 9.941,-7.619 7.187,-4.391 15.143,-7.619 23.375,-9.803 16.491,-4.44 33.898,-5.502 50.893,-3.88 17.014,1.592 33.757,6.324 48.753,14.186 7.513,3.885 14.592,8.481 21.234,13.496 6.667,5.028 12.796,10.449 18.566,16.236 5.798,5.747 11.19,11.831 16.19,18.121 1.252,1.569 2.45,3.175 3.657,4.768 1.156,1.625 2.366,3.218 3.462,4.869 2.301,3.246 4.425,6.567 6.508,9.912 l 1.528,2.526 c 0.51,0.844 0.962,1.704 1.451,2.558 l 0.739,1.282 c 0.245,0.426 0.431,0.829 0.652,1.246 0.445,0.821 0.906,1.645 1.274,2.498 1.591,3.383 2.928,6.925 3.782,10.624 0.845,3.696 1.167,7.545 0.79,11.413 -0.363,3.862 -1.492,7.752 -3.484,11.288 -1.936,3.582 -4.762,6.732 -8.047,9.339 l -2.576,1.835 c -0.911,0.537 -1.84,1.05 -2.773,1.559 -0.915,0.549 -1.919,0.922 -2.893,1.357 l -1.473,0.634 c -0.495,0.201 -1.008,0.357 -1.514,0.533 -4.033,1.451 -8.251,2.376 -12.473,3.235 -4.228,0.845 -8.496,1.538 -12.766,2.355 -4.274,0.787 -8.546,1.745 -12.76,3.118 l -1.586,0.502 -1.552,0.618 -1.556,0.623 c -0.523,0.199 -1.042,0.412 -1.54,0.676 l -3.042,1.498 c -1.085,0.626 -2.095,1.351 -2.976,2.15 -3.66,3.124 -6.222,7.415 -7.715,12.03 -1.492,4.642 -1.74,9.558 -1.37,14.336 l 0.506,3.529 c 0.096,0.587 0.153,1.195 0.286,1.766 l 0.422,1.709 0.864,3.439 c 0.324,1.13 0.746,2.203 1.119,3.312 l 1.168,3.315 1.403,3.162 1.44,3.165 c 0.494,1.047 1.077,2.017 1.615,3.032 2.11,4.026 4.582,8.053 7.438,11.834 2.906,3.724 6.079,7.288 9.615,10.471 1.75,1.613 3.589,3.125 5.465,4.591 l 2.893,2.088 2.972,1.968 c 4.007,2.554 8.235,4.736 12.584,6.568 8.718,3.635 17.851,6.013 27.135,7.099 4.65,0.576 9.315,0.804 14.143,0.629 1.222,-0.055 2.439,-0.121 3.746,-0.256 l 0.991,-0.108 1.074,-0.15 c 0.646,-0.11 1.211,-0.225 1.819,-0.348 2.388,-0.465 4.774,-1.131 7.141,-1.881 4.73,-1.56 9.407,-3.878 13.593,-7.176 4.167,-3.317 7.648,-7.864 9.604,-12.893 l 0.649,-1.904 0.305,-0.952 0.215,-0.967 0.412,-1.927 c 0.142,-0.641 0.168,-1.284 0.253,-1.923 l 0.199,-1.914 0.031,-1.892 c 0.061,-1.257 -0.082,-2.51 -0.185,-3.751 -0.037,-0.622 -0.128,-1.238 -0.243,-1.852 L 27.988,21.471 C 27.722,20.26 27.395,19.062 27.05,17.881 26.225,15.545 25.285,13.266 23.982,11.169 23.66,10.644 23.357,10.113 23.007,9.609 L 21.886,8.142 C 21.187,7.145 20.251,6.302 19.434,5.412 19.018,4.971 18.511,4.604 18.049,4.209 17.564,3.835 17.134,3.413 16.611,3.093 15.565,2.453 14.61,1.727 13.484,1.263 9.143,-0.84 4.307,-1.329 -0.014,-0.447 c -0.123,0.024 -0.202,0.144 -0.178,0.267 0.02,0.097 0.1,0.167 0.192,0.18"
             style="fill:#000000;fill-opacity:1;fill-rule:nonzero;stroke:none"
             id="path60" /></g><g
           id="g62"
           transform="translate(729.7314,491.4409)"><path
             d="M 0,0 -0.079,0.188 -4.151,9.913 -7.437,7.876 c -1.557,-0.965 -2.552,-2.457 -3.297,-3.762 -0.38,-0.676 -0.748,-1.247 -1.14,-1.718 -0.369,-0.442 -0.76,-0.794 -1.202,-1.051 -0.009,-0.005 -0.016,-0.013 -0.024,-0.017 -1.822,-1.029 -3.587,-2.057 -5.344,-3.183 -1.754,-1.104 -3.439,-2.287 -5.149,-3.42 -1.713,-1.128 -3.399,-2.265 -5.086,-3.421 l -2.519,-1.744 -2.549,-1.714 -5.063,-3.486 c -3.385,-2.311 -6.766,-4.675 -10.081,-7.066 -3.299,-2.384 -6.592,-4.654 -9.894,-7.136 -3.332,-2.409 -6.523,-4.987 -9.788,-7.492 -1.638,-1.249 -3.196,-2.583 -4.799,-3.871 -0.415,-0.335 -0.767,-0.632 -1.159,-0.969 l -1.247,-1.087 c -0.873,-0.783 -1.834,-1.687 -2.817,-2.791 -0.495,-0.538 -0.983,-1.151 -1.339,-1.882 -0.362,-0.705 -0.594,-1.6 -0.69,-2.426 -0.054,-0.791 10e-4,-1.596 0.05,-2.361 0.071,-0.772 0.121,-1.507 0.302,-2.256 1.238,-3.179 2.568,-5.76 4.246,-8.073 l 0.794,-0.115 c 0.171,0.977 0.42,1.942 0.796,2.861 0.183,0.46 0.362,0.919 0.605,1.353 0.243,0.432 0.534,0.844 0.82,1.245 0.574,0.801 1.175,1.557 1.863,2.213 0.299,0.338 0.627,0.617 0.915,0.941 0.295,0.316 0.552,0.66 0.835,1.005 1.11,1.374 2.528,2.731 4,4.146 1.457,1.38 2.942,2.73 4.376,4.135 5.793,5.558 11.446,11.271 17.306,16.839 2.889,2.804 5.831,5.536 8.815,8.232 3.039,2.628 6.044,5.302 9.232,7.748 1.58,1.237 3.173,2.468 4.773,3.673 1.605,1.198 3.266,2.31 4.926,3.402 0.552,0.36 1.117,0.707 1.68,1.057 l -5.433,-25.331 -3.453,-16.173 c -0.246,-1.217 -0.687,-2.753 -0.887,-4.81 -0.025,-0.253 -0.043,-0.517 -0.055,-0.784 l -0.015,-0.406 c 0.004,-0.069 -0.015,-0.138 0.012,-0.207 0,0 0.977,-3.153 5.879,-3.067 0.055,0.001 0.1,0.006 0.153,0.008 0.442,-0.004 0.884,0.017 1.323,0.069 1.045,0.126 2.069,0.257 3.073,0.572 0.054,0.017 0.109,0.041 0.164,0.059 0.365,0.103 0.724,0.226 1.074,0.368 1.282,0.525 2.47,1.237 3.724,1.814 l -0.415,0.916 c -0.697,-0.302 -1.505,-0.438 -2.325,-0.41 0.075,0.624 0.32,1.642 0.634,2.998 l 3.62,16.195 7.261,32.322 C 0.078,-0.132 0.017,-0.062 0,0"
             style="fill:#000000;fill-opacity:1;fill-rule:nonzero;stroke:none"
             id="path64" /></g></g></g></g></svg>
