<?xml version="1.0" encoding="utf-8"?>
<!-- Generator: Adobe Illustrator 21.0.2, SVG Export Plug-In . SVG Version: 6.00 Build 0)  -->
<svg version="1.1" id="レイヤー_1" xmlns="http://www.w3.org/2000/svg" xmlns:xlink="http://www.w3.org/1999/xlink" x="0px"
	 y="0px" viewBox="0 0 145 58.4" style="enable-background:new 0 0 145 58.4;" xml:space="preserve">
<style type="text/css">
	.st0{fill:#FFFFFF;}
	.st1{fill:none;}
	.st2{fill:#59C5C4;}
	.st3{enable-background:new    ;}
</style>
<g id="パス_1251_1_">
	<g>
		<path class="st0" d="M140,2.9H5c-1.1,0-2,0.8-2,1.9v48.7c0,1,0.9,1.9,2,1.9H140c1.1,0,2-0.8,2-1.9V4.8C142,3.7,141.1,2.9,140,2.9z
			"/>
		<path class="st0" d="M140-0.1H5c-2.8,0-5,2.2-5,4.9v48.7c0,2.7,2.2,4.9,5,4.9H140c2.8,0,5-2.2,5-4.9V4.8
			C145,2.1,142.8-0.1,140-0.1z"/>
	</g>
</g>
<g id="グループ化_58" transform="translate(-814 -22)">
	<g id="グループ化_60" transform="translate(814 22)">
		<g id="パス_1251">
			<g>
				<path class="st1" d="M140,3H5C3.9,3,3,3.8,3,4.9v48.7c0,1,0.9,1.9,2,1.9h135c1.1,0,2-0.8,2-1.9V4.9C142,3.8,141.1,3,140,3z"/>
				<path class="st2" d="M140,0H5C2.2,0,0,2.2,0,4.9v48.7c0,2.7,2.2,4.9,5,4.9h135c2.8,0,5-2.2,5-4.9V4.9C145,2.2,142.8,0,140,0z
					 M142,53.6c0,1-0.9,1.9-2,1.9H5c-1.1,0-2-0.8-2-1.9V4.9C3,3.8,3.9,3,5,3h135c1.1,0,2,0.8,2,1.9V53.6z"/>
			</g>
		</g>
		<path id="calendar-alt-solid" class="st2" d="M40.3,22H20.6c-0.3,0-0.6-0.3-0.6-0.6v-1.7c0-1.2,1-2.2,2.2-2.2l0,0h2.2v-2.4
			c0-0.3,0.3-0.6,0.6-0.6h1.9c0.3,0,0.6,0.3,0.6,0.6v2.4h6v-2.4c0-0.3,0.3-0.6,0.6-0.6H36c0.3,0,0.6,0.3,0.6,0.6v2.4h2.2
			c1.2,0,2.2,1,2.2,2.2v1.7C40.8,21.7,40.6,22,40.3,22z M20.6,23.5h19.7c0.3,0,0.6,0.3,0.6,0.6v12.1c0,1.2-1,2.2-2.2,2.2H22.2
			c-1.2,0-2.2-1-2.2-2.2l0,0V24C20,23.7,20.3,23.5,20.6,23.5z M26,32.9c0-0.3-0.3-0.6-0.6-0.6h-1.9c-0.3,0-0.6,0.3-0.6,0.6v1.9
			c0,0.3,0.3,0.6,0.6,0.6h1.9c0.3,0,0.6-0.3,0.6-0.6V32.9z M26,27c0-0.3-0.3-0.6-0.6-0.6h-1.9c-0.3,0-0.6,0.3-0.6,0.6v1.9
			c0,0.3,0.3,0.6,0.6,0.6h1.9c0.3,0,0.6-0.3,0.6-0.6V27z M31.9,32.9c0-0.3-0.3-0.6-0.6-0.6h-1.9c-0.3,0-0.6,0.3-0.6,0.6v1.9
			c0,0.3,0.3,0.6,0.6,0.6h1.9c0.3,0,0.6-0.3,0.6-0.6V32.9z M31.9,27c0-0.3-0.3-0.6-0.6-0.6h-1.9c-0.3,0-0.6,0.3-0.6,0.6v1.9
			c0,0.3,0.3,0.6,0.6,0.6h1.9c0.3,0,0.6-0.3,0.6-0.6V27z M37.9,32.9c0-0.3-0.3-0.6-0.6-0.6h-1.9c-0.3,0-0.6,0.3-0.6,0.6v1.9
			c0,0.3,0.3,0.6,0.6,0.6h1.9c0.3,0,0.6-0.3,0.6-0.6V32.9z M37.9,27c0-0.3-0.2-0.6-0.6-0.6h-1.9c-0.3,0-0.6,0.3-0.6,0.6v1.9
			c0,0.3,0.3,0.6,0.6,0.6h1.9c0.3,0,0.6-0.3,0.6-0.6V27z"/>
		<g class="st3">
			<path class="st2" d="M64.3,33.2l-1.9-7.8l0,0l-1.9,7.8H58l-3-11.4h2.5l1.8,7.8l0,0l2-7.8h2.4l2,7.9l0,0l1.9-7.9h2.5L67,33.2
				C67,33.2,64.3,33.2,64.3,33.2z"/>
			<path class="st2" d="M79.6,21.8v2.1h-6v2.4h5.5v2h-5.5v2.8h6.2v2.1h-8.7V21.8H79.6z"/>
			<path class="st2" d="M86.8,21.8c0.5,0,1,0,1.5,0.1c0.4,0.1,0.8,0.3,1.2,0.5c0.3,0.2,0.6,0.5,0.7,0.9c0.2,0.4,0.3,0.8,0.3,1.3
				c0,0.6-0.1,1.1-0.4,1.4c-0.3,0.4-0.6,0.7-1.2,0.9c0.7,0.2,1.2,0.6,1.6,1.1c0.3,0.5,0.5,1.1,0.5,1.8c0,0.6-0.1,1.1-0.3,1.5
				c-0.2,0.4-0.5,0.8-0.9,1S89,32.9,88.5,33s-1,0.2-1.5,0.2h-5.5V21.8H86.8z M86.5,26.4c0.4,0,0.8-0.1,1.1-0.3
				c0.3-0.2,0.4-0.6,0.4-1c0-0.3,0-0.5-0.1-0.7s-0.2-0.3-0.4-0.4s-0.3-0.2-0.6-0.2s-0.4-0.1-0.6-0.1h-2.4v2.7H86.5z M86.6,31.3
				c0.2,0,0.5,0,0.7-0.1c0.2,0,0.4-0.1,0.6-0.2s0.3-0.3,0.4-0.5s0.2-0.4,0.2-0.7c0-0.6-0.2-1-0.5-1.3s-0.8-0.4-1.3-0.4H84v3.1h2.6
				V31.3z"/>
		</g>
		<g class="st3">
			<path class="st2" d="M105.5,21.9c-1.1,0.9-1.2,1-1.9,1.5c-1,0.7-1.6,1.1-2.5,1.6c0.4,0.2,0.4,0.2,0.8,0.5l-0.5,0.5h2.9
				c0.9,0,1.4,0,1.8-0.1l1,1.1c0,0-0.4,0.5-1,1.4c-0.8,1-1.4,1.6-2.5,2.6c-0.5-0.6-0.8-0.8-1.4-1.2c1.2-0.9,1.6-1.3,2.3-2.2h-3.7
				v5.5c0,1.3-0.5,1.7-2.5,1.7c-0.5,0-1.3,0-1.8,0c-0.1-0.7-0.2-1.1-0.5-1.8c1,0.1,1.5,0.2,2.3,0.2c0.5,0,0.6-0.1,0.6-0.4v-5.1h-4.2
				c-0.9,0-1.5,0-2,0.1V26c0.5,0.1,1.1,0.1,2.1,0.1h4.9c-1.4-1-2.2-1.5-3.5-2.3l1.2-1.1c1.1,0.6,1.4,0.8,2.4,1.4
				c0.8-0.4,1.2-0.6,2.5-1.6h-6.2c-1,0-1.4,0-1.9,0.1v-1.8c0.6,0.1,1,0.1,2,0.1h7.1c0.7,0,1,0,1.4-0.1L105.5,21.9z"/>
			<path class="st2" d="M110.5,29.3c-0.1,2-0.3,3.3-0.8,4.7l-1.4-0.7c0.4-1.4,0.7-2.5,0.8-4.3L110.5,29.3z M108.4,26.9
				c0.2,0,0.4,0,0.7,0c0.1,0,0.3,0,0.6,0c0.5-0.7,0.6-0.8,0.9-1.2c-0.9-1.1-1-1.3-2.2-2.4l0.9-1.3c0.2,0.3,0.3,0.4,0.5,0.6
				c0.6-0.9,1.2-2,1.3-2.6l1.5,0.6c-0.1,0.1-0.2,0.3-0.3,0.6c-0.4,0.7-1.1,1.9-1.5,2.4c0.3,0.3,0.4,0.5,0.7,0.8
				c1-1.5,1.5-2.3,1.7-2.8l1.5,0.8c-0.2,0.2-0.3,0.3-0.5,0.7c-0.9,1.3-2,2.8-2.7,3.6c0.9,0,1,0,1.8-0.1c-0.1-0.4-0.2-0.6-0.5-1.1
				L114,25c0.4,0.8,0.8,1.9,1.3,3.1l-1.3,0.6c-0.1-0.4-0.1-0.5-0.2-0.8c-0.5,0-0.8,0.1-1.1,0.1v5c0,0.8,0,1.2,0.1,1.7H111
				c0.1-0.5,0.1-0.9,0.1-1.7v-4.9c-0.7,0-1.2,0.1-1.5,0.1c-0.7,0-0.7,0-1,0.1L108.4,26.9z M114.6,29c0.3,1.4,0.6,2.7,0.8,4.1
				l-1.5,0.4c-0.1-1.2-0.3-2.8-0.6-4.1L114.6,29z M117.2,24.2c-0.6,1.2-0.8,1.6-1.6,2.5c-0.3-0.5-0.7-0.9-1.3-1.3
				c0.8-0.9,1.5-2,1.9-3.2c0.3-0.8,0.5-1.5,0.6-2l1.8,0.3c-0.1,0.2-0.1,0.2-0.2,0.7c-0.2,0.7-0.3,0.8-0.5,1.3h3.5c0.7,0,1,0,1.3-0.1
				c-0.1,0.5-0.1,0.5-0.1,2.8c0,1.8-0.2,4.6-0.4,5.9c-0.3,1.8-0.5,2.7-1.1,3.1c-0.4,0.3-1,0.4-2,0.4c-0.4,0-0.9,0-1.5-0.1
				c-0.1-0.7-0.2-1.1-0.4-1.8c0.8,0.1,1.5,0.2,2.1,0.2c0.7,0,0.9-0.2,1.1-1.2c0.3-1.6,0.5-4.4,0.5-7.7h-3.7V24.2z M118,30.8
				c-0.7-2-1-2.7-1.8-4.1l1.4-0.8c0.9,1.5,1.4,2.4,2,4L118,30.8z"/>
		</g>
	</g>
</g>
<g id="グループ化_58_1_" transform="translate(-814 -22)">
	<g id="グループ化_60_1_" transform="translate(814 22)">
		<path id="calendar-alt-solid_1_" class="st2" d="M322.3,202h-19.7c-0.3,0-0.6-0.3-0.6-0.6v-1.7c0-1.2,1-2.2,2.2-2.2l0,0h2.2v-2.4
			c0-0.3,0.3-0.6,0.6-0.6h1.9c0.3,0,0.6,0.3,0.6,0.6v2.4h6v-2.4c0-0.3,0.3-0.6,0.6-0.6h1.9c0.3,0,0.6,0.3,0.6,0.6v2.4h2.2
			c1.2,0,2.2,1,2.2,2.2v1.7C322.8,201.7,322.6,202,322.3,202z M302.6,203.5h19.7c0.3,0,0.6,0.3,0.6,0.6v12.1c0,1.2-1,2.2-2.2,2.2
			h-16.5c-1.2,0-2.2-1-2.2-2.2l0,0V204C302,203.7,302.3,203.5,302.6,203.5z M308,212.9c0-0.3-0.3-0.6-0.6-0.6h-1.9
			c-0.3,0-0.6,0.3-0.6,0.6v1.9c0,0.3,0.3,0.6,0.6,0.6h1.9c0.3,0,0.6-0.3,0.6-0.6V212.9z M308,207c0-0.3-0.3-0.6-0.6-0.6h-1.9
			c-0.3,0-0.6,0.3-0.6,0.6v1.9c0,0.3,0.3,0.6,0.6,0.6h1.9c0.3,0,0.6-0.3,0.6-0.6V207z M313.9,212.9c0-0.3-0.3-0.6-0.6-0.6h-1.9
			c-0.3,0-0.6,0.3-0.6,0.6v1.9c0,0.3,0.3,0.6,0.6,0.6h1.9c0.3,0,0.6-0.3,0.6-0.6V212.9z M313.9,207c0-0.3-0.3-0.6-0.6-0.6h-1.9
			c-0.3,0-0.6,0.3-0.6,0.6v1.9c0,0.3,0.3,0.6,0.6,0.6h1.9c0.3,0,0.6-0.3,0.6-0.6V207z M319.9,212.9c0-0.3-0.3-0.6-0.6-0.6h-1.9
			c-0.3,0-0.6,0.3-0.6,0.6v1.9c0,0.3,0.3,0.6,0.6,0.6h1.9c0.3,0,0.6-0.3,0.6-0.6V212.9z M319.9,207c0-0.3-0.2-0.6-0.6-0.6h-1.9
			c-0.3,0-0.6,0.3-0.6,0.6v1.9c0,0.3,0.3,0.6,0.6,0.6h1.9c0.3,0,0.6-0.3,0.6-0.6V207z"/>
		<g class="st3">
			<path class="st2" d="M346.3,213.2l-1.9-7.8l0,0l-1.9,7.8H340l-3-11.4h2.5l1.8,7.8l0,0l2-7.8h2.4l2,7.9l0,0l1.9-7.9h2.5l-3.1,11.4
				C349,213.2,346.3,213.2,346.3,213.2z"/>
			<path class="st2" d="M361.6,201.8v2.1h-6v2.4h5.5v2h-5.5v2.8h6.2v2.1h-8.7v-11.4H361.6z"/>
			<path class="st2" d="M368.8,201.8c0.5,0,1,0,1.5,0.1c0.4,0.1,0.8,0.3,1.2,0.5c0.3,0.2,0.6,0.5,0.7,0.9c0.2,0.4,0.3,0.8,0.3,1.3
				c0,0.6-0.1,1.1-0.4,1.4c-0.3,0.4-0.6,0.7-1.2,0.9c0.7,0.2,1.2,0.6,1.6,1.1c0.3,0.5,0.5,1.1,0.5,1.8c0,0.6-0.1,1.1-0.3,1.5
				c-0.2,0.4-0.5,0.8-0.9,1c-0.4,0.2-0.8,0.6-1.3,0.7s-1,0.2-1.5,0.2h-5.5v-11.4H368.8z M368.5,206.4c0.4,0,0.8-0.1,1.1-0.3
				c0.3-0.2,0.4-0.6,0.4-1c0-0.3,0-0.5-0.1-0.7c-0.1-0.2-0.2-0.3-0.4-0.4s-0.3-0.2-0.6-0.2c-0.3,0-0.4-0.1-0.6-0.1h-2.4v2.7H368.5z
				 M368.6,211.3c0.2,0,0.5,0,0.7-0.1c0.2,0,0.4-0.1,0.6-0.2s0.3-0.3,0.4-0.5c0.1-0.2,0.2-0.4,0.2-0.7c0-0.6-0.2-1-0.5-1.3
				c-0.3-0.3-0.8-0.4-1.3-0.4H366v3.1h2.6V211.3z"/>
		</g>
		<g class="st3">
			<path class="st2" d="M387.5,201.9c-1.1,0.9-1.2,1-1.9,1.5c-1,0.7-1.6,1.1-2.5,1.6c0.4,0.2,0.4,0.2,0.8,0.5l-0.5,0.5h2.9
				c0.9,0,1.4,0,1.8-0.1l1,1.1c0,0-0.4,0.5-1,1.4c-0.8,1-1.4,1.6-2.5,2.6c-0.5-0.6-0.8-0.8-1.4-1.2c1.2-0.9,1.6-1.3,2.3-2.2h-3.7
				v5.5c0,1.3-0.5,1.7-2.5,1.7c-0.5,0-1.3,0-1.8,0c-0.1-0.7-0.2-1.1-0.5-1.8c1,0.1,1.5,0.2,2.3,0.2c0.5,0,0.6-0.1,0.6-0.4v-5.1h-4.2
				c-0.9,0-1.5,0-2,0.1V206c0.5,0.1,1.1,0.1,2.1,0.1h4.9c-1.4-1-2.2-1.5-3.5-2.3l1.2-1.1c1.1,0.6,1.4,0.8,2.4,1.4
				c0.8-0.4,1.2-0.6,2.5-1.6h-6.2c-1,0-1.4,0-1.9,0.1v-1.8c0.6,0.1,1,0.1,2,0.1h7.1c0.7,0,1,0,1.4-0.1L387.5,201.9z"/>
			<path class="st2" d="M392.5,209.3c-0.1,2-0.3,3.3-0.8,4.7l-1.4-0.7c0.4-1.4,0.7-2.5,0.8-4.3L392.5,209.3z M390.4,206.9
				c0.2,0,0.4,0,0.7,0c0.1,0,0.3,0,0.6,0c0.5-0.7,0.6-0.8,0.9-1.2c-0.9-1.1-1-1.3-2.2-2.4l0.9-1.3c0.2,0.3,0.3,0.4,0.5,0.6
				c0.6-0.9,1.2-2,1.3-2.6l1.5,0.6c-0.1,0.1-0.2,0.3-0.3,0.6c-0.4,0.7-1.1,1.9-1.5,2.4c0.3,0.3,0.4,0.5,0.7,0.8
				c1-1.5,1.5-2.3,1.7-2.8l1.5,0.8c-0.2,0.2-0.3,0.3-0.5,0.7c-0.9,1.3-2,2.8-2.7,3.6c0.9,0,1,0,1.8-0.1c-0.1-0.4-0.2-0.6-0.5-1.1
				l1.2-0.5c0.4,0.8,0.8,1.9,1.3,3.1l-1.3,0.6c-0.1-0.4-0.1-0.5-0.2-0.8c-0.5,0-0.8,0.1-1.1,0.1v5c0,0.8,0,1.2,0.1,1.7H393
				c0.1-0.5,0.1-0.9,0.1-1.7v-4.9c-0.7,0-1.2,0.1-1.5,0.1c-0.7,0-0.7,0-1,0.1L390.4,206.9z M396.6,209c0.3,1.4,0.6,2.7,0.8,4.1
				l-1.5,0.4c-0.1-1.2-0.3-2.8-0.6-4.1L396.6,209z M399.2,204.2c-0.6,1.2-0.8,1.6-1.6,2.5c-0.3-0.5-0.7-0.9-1.3-1.3
				c0.8-0.9,1.5-2,1.9-3.2c0.3-0.8,0.5-1.5,0.6-2l1.8,0.3c-0.1,0.2-0.1,0.2-0.2,0.7c-0.2,0.7-0.3,0.8-0.5,1.3h3.5c0.7,0,1,0,1.3-0.1
				c-0.1,0.5-0.1,0.5-0.1,2.8c0,1.8-0.2,4.6-0.4,5.9c-0.3,1.8-0.5,2.7-1.1,3.1c-0.4,0.3-1,0.4-2,0.4c-0.4,0-0.9,0-1.5-0.1
				c-0.1-0.7-0.2-1.1-0.4-1.8c0.8,0.1,1.5,0.2,2.1,0.2c0.7,0,0.9-0.2,1.1-1.2c0.3-1.6,0.5-4.4,0.5-7.7h-3.7V204.2z M400,210.8
				c-0.7-2-1-2.7-1.8-4.1l1.4-0.8c0.9,1.5,1.4,2.4,2,4L400,210.8z"/>
		</g>
	</g>
</g>
</svg>
