<svg xmlns="http://www.w3.org/2000/svg" viewBox="0 0 64 64"><defs><style>.cls-1{fill:#ccc;}.cls-2{fill:#e6e6e6;}.cls-3{fill:#e4202b;}.cls-4{fill:#efe12a;}.cls-5{fill:#0097ce;}.cls-6{fill:#c1272d;}.cls-7{fill:#48c751;}</style></defs><g id="Layer_9" data-name="Layer 9"><path class="cls-1" d="M52.55,4.39H49.16a.61.61,0,0,0-.56.81c.1,0,0,3.63,0,3.74a.59.59,0,0,0,.6.65h3.29a2.41,2.41,0,0,1,2.4,2.4V53.08a2.41,2.41,0,0,1-2.4,2.4H11.45a2.41,2.41,0,0,1-2.4-2.4V12a2.41,2.41,0,0,1,2.4-2.4h3.31a.6.6,0,0,0,.6-.6c0-.07,0-3.85.05-3.79a.61.61,0,0,0-.56-.81h-3.4A7.61,7.61,0,0,0,3.85,12V53.08a7.61,7.61,0,0,0,7.6,7.6h41.1a7.61,7.61,0,0,0,7.6-7.6V12A7.61,7.61,0,0,0,52.55,4.39Z"/><rect class="cls-2" x="7.85" y="8.39" width="48.29" height="48.29" rx="3.6"/><path class="cls-3" d="M52.54,8.39H11.45A3.61,3.61,0,0,0,7.85,12v4.94a.6.6,0,0,0,.6.6H55.54a.6.6,0,0,0,.6-.6V12A3.61,3.61,0,0,0,52.54,8.39Z"/><path class="cls-2" d="M16.9,3.32A2.29,2.29,0,0,0,14.16,5.5v7c0,2.95,4.91,2.95,4.93,0v-7A2.19,2.19,0,0,0,16.9,3.32Z"/><path class="cls-2" d="M32.28,3.32A2.29,2.29,0,0,0,29.54,5.5v7c0,2.95,4.91,2.95,4.93,0v-7A2.19,2.19,0,0,0,32.28,3.32Z"/><path class="cls-2" d="M47.66,3.32A2.3,2.3,0,0,0,44.91,5.5v7c0,2.95,4.92,2.95,4.94,0v-7A2.19,2.19,0,0,0,47.66,3.32Z"/><path class="cls-4" d="M37.58,41.82,26.91,31.15a.6.6,0,0,0-1,.17l-3.56,7.31h0L15.86,52.06a.61.61,0,0,0,.81.8L26,48.35l.31-.15L31,45.89l6.39-3.11A.6.6,0,0,0,37.58,41.82Z"/><path class="cls-5" d="M39.18,25.27a.6.6,0,0,1-.6-.6c.07-.65-.29-1.86.6-1.89a.6.6,0,0,1,.6.6C39.71,24,40.07,25.24,39.18,25.27Z"/><path class="cls-5" d="M39.18,30.19a.6.6,0,0,1-.6-.6c.07-.65-.29-1.86.6-1.89a.6.6,0,0,1,.6.6C39.71,29,40.07,30.16,39.18,30.19Z"/><path class="cls-5" d="M40.45,25.79a.6.6,0,0,1-.42-1c.48-.38,1.1-1.52,1.75-.91s-.53,1.28-.9,1.76A.6.6,0,0,1,40.45,25.79Z"/><path class="cls-5" d="M42.26,27.07H41a.6.6,0,0,1-.6-.6c0-.89,1.24-.54,1.88-.6A.6.6,0,0,1,42.26,27.07Z"/><path class="cls-5" d="M41.36,29.25c-.38.06-1.07-.89-1.33-1.09-.56-.54.3-1.41.85-.85l.9.91A.61.61,0,0,1,41.36,29.25Z"/><path class="cls-5" d="M37,29.25a.61.61,0,0,1-.42-1c.47-.38,1.1-1.52,1.75-.91s-.53,1.28-.91,1.76A.58.58,0,0,1,37,29.25Z"/><path class="cls-5" d="M37.38,27.07H36.1a.6.6,0,0,1-.6-.6c0-.89,1.24-.54,1.88-.6A.6.6,0,0,1,37.38,27.07Z"/><path class="cls-5" d="M37.91,25.79c-.38.06-1.08-.88-1.33-1.08-.56-.54.3-1.41.84-.85l.91.91A.6.6,0,0,1,37.91,25.79Z"/><path class="cls-6" d="M41.83,37.89a.6.6,0,0,0,.42-1,5.59,5.59,0,0,0-7.91,0,.6.6,0,1,0,.85.85,4.41,4.41,0,0,1,6.22,0A.57.57,0,0,0,41.83,37.89Z"/><path class="cls-6" d="M32,23a.6.6,0,0,0-.85.85,7,7,0,0,1,0,9.86.6.6,0,0,0,.43,1,.58.58,0,0,0,.42-.17A8.18,8.18,0,0,0,32,23Z"/><path class="cls-6" d="M40.56,30.2a6.33,6.33,0,0,0-4.5,1.87.59.59,0,0,0,0,.85.61.61,0,0,0,.85,0,5.12,5.12,0,0,1,5.86-1,13.66,13.66,0,0,0-1.71-.05.6.6,0,0,0-.6.6.6.6,0,0,0,.6.6h1.5A.59.59,0,0,0,42.84,32a5,5,0,0,1,1.38,1,.6.6,0,0,0,.85-.85A6.37,6.37,0,0,0,40.56,30.2Z"/><path class="cls-6" d="M28.18,27a.59.59,0,0,0,0,.85,2,2,0,0,1,0,2.84.6.6,0,0,0,.84.85A3.2,3.2,0,0,0,29,27,.6.6,0,0,0,28.18,27Z"/><path class="cls-6" d="M32,21.84a.6.6,0,0,0,.6-.6V19.75a.6.6,0,0,0-1.2,0v1.49A.6.6,0,0,0,32,21.84Z"/><path class="cls-6" d="M33.47,22.45a.63.63,0,0,0,.43-.17L35,21.22a.6.6,0,0,0,0-.85.61.61,0,0,0-.85,0l-1.06,1.06A.6.6,0,0,0,33.47,22.45Z"/><path class="cls-6" d="M33.49,23.33a.6.6,0,0,0,.6.6h1.49a.6.6,0,0,0,0-1.2H34.09A.6.6,0,0,0,33.49,23.33Z"/><path class="cls-6" d="M31,24.38a.61.61,0,0,0-.85,0L29,25.43a.61.61,0,0,0,0,.85.59.59,0,0,0,.85,0L31,25.23A.61.61,0,0,0,31,24.38Z"/><path class="cls-6" d="M29.91,23.93a.6.6,0,0,0,0-1.2H28.42a.6.6,0,0,0,0,1.2Z"/><path class="cls-6" d="M30.1,22.28a.6.6,0,0,0,.85-.85l-1.06-1.06c-.54-.55-1.41.31-.85.85Z"/><path class="cls-6" d="M44.64,28.29a.6.6,0,0,0-.6.61v1.49a.6.6,0,1,0,1.2,0V28.9A.6.6,0,0,0,44.64,28.29Z"/><path class="cls-6" d="M44.64,34a.6.6,0,0,0-.6.6v1.5a.6.6,0,1,0,1.2,0V34.6A.6.6,0,0,0,44.64,34Z"/><path class="cls-6" d="M46.12,31.6a.59.59,0,0,0,.42-.18l1.06-1.05a.61.61,0,0,0,0-.85.59.59,0,0,0-.85,0l-1.06,1.05A.61.61,0,0,0,46.12,31.6Z"/><path class="cls-6" d="M48.22,31.87H46.73a.6.6,0,0,0-.6.6.6.6,0,0,0,.6.6h1.49A.6.6,0,0,0,48.22,31.87Z"/><path class="cls-6" d="M46.54,33.53c-.54-.56-1.4.3-.85.84.27.21,1.12,1.31,1.48,1.24a.61.61,0,0,0,.43-1Z"/><path class="cls-6" d="M42.54,35.43l1.05-1.06c.56-.54-.3-1.4-.85-.84l-1.05,1A.6.6,0,0,0,42.54,35.43Z"/><path class="cls-6" d="M44.34,37.76H43.29a.59.59,0,0,0-.38,1.05.59.59,0,0,0-.64.69.58.58,0,0,0-.92,0,.58.58,0,0,0-.64-.68.6.6,0,0,0-.38-1.06h-1a.6.6,0,0,0,0,1.2h1.11c-.54.55-1.33,1-.79,1.63a.6.6,0,0,0,.84,0l.75-.75s0,0,0-.06,0,1.1,0,1.15a.6.6,0,1,0,1.2,0s0-1.14,0-1.15a.21.21,0,0,0,0,.06l.75.75a.59.59,0,0,0,.84,0c.54-.59-.25-1.07-.79-1.62h1.11A.6.6,0,0,0,44.34,37.76Z"/><path class="cls-6" d="M26,27.38l-1.06,1.06a.6.6,0,0,0,.43,1c.36.08,1.22-1,1.48-1.23C27.39,27.69,26.53,26.82,26,27.38Z"/><path class="cls-6" d="M26.39,26.32a.6.6,0,0,0-.6-.6H24.3a.6.6,0,0,0-.6.6.59.59,0,0,0,.6.6h1.49A.59.59,0,0,0,26.39,26.32Z"/><path class="cls-6" d="M25.77,23.36c-.54-.56-1.4.3-.85.85.27.2,1.12,1.31,1.49,1.23a.6.6,0,0,0,.42-1Z"/><path class="cls-5" d="M16.74,21.82a.6.6,0,0,0,.6-.6V19.73a.6.6,0,1,0-1.2,0v1.49A.6.6,0,0,0,16.74,21.82Z"/><path class="cls-5" d="M17.34,26.93V25.44a.6.6,0,0,0-1.2,0v1.49A.6.6,0,0,0,17.34,26.93Z"/><path class="cls-5" d="M18.22,22.43a.59.59,0,0,0,.42-.18L19.7,21.2a.6.6,0,0,0-.85-.85l-1.06,1.06A.6.6,0,0,0,18.22,22.43Z"/><path class="cls-5" d="M20.32,22.71H18.83a.6.6,0,0,0,0,1.2h1.49A.6.6,0,0,0,20.32,22.71Z"/><path class="cls-5" d="M18.85,26.26a.6.6,0,0,0,.85-.85l-1.06-1.05c-.54-.56-1.41.3-.85.85Z"/><path class="cls-5" d="M14.84,24.36l-1.05,1.05a.61.61,0,0,0,.42,1c.36.07,1.22-1,1.48-1.23A.6.6,0,0,0,14.84,24.36Z"/><path class="cls-5" d="M13.16,23.91h1.49a.6.6,0,0,0,0-1.2H13.16A.6.6,0,0,0,13.16,23.91Z"/><path class="cls-5" d="M14.84,22.25a.6.6,0,0,0,.85-.84l-1.06-1.06c-.54-.56-1.4.31-.84.85Z"/><path class="cls-5" d="M47.56,20.65a.6.6,0,0,0,.6-.6V18.56a.6.6,0,0,0-.6-.6.6.6,0,0,0-.6.6v1.49A.6.6,0,0,0,47.56,20.65Z"/><path class="cls-5" d="M47.56,26.36a.6.6,0,0,0,.6-.6V24.27a.6.6,0,0,0-.6-.6.6.6,0,0,0-.6.6v1.49A.6.6,0,0,0,47.56,26.36Z"/><path class="cls-5" d="M49,21.26a.65.65,0,0,0,.43-.17L50.52,20a.6.6,0,0,0-.85-.85l-1.05,1.06A.6.6,0,0,0,49,21.26Z"/><path class="cls-5" d="M51.14,21.54H49.65a.6.6,0,0,0,0,1.2h1.49A.6.6,0,0,0,51.14,21.54Z"/><path class="cls-5" d="M49.47,23.19c-.55-.56-1.41.31-.85.85.27.2,1.11,1.3,1.48,1.23a.6.6,0,0,0,.42-1Z"/><path class="cls-5" d="M46.51,23.19a.61.61,0,0,0-.85,0l-1,1.06a.6.6,0,1,0,.85.84l1-1.05A.59.59,0,0,0,46.51,23.19Z"/><path class="cls-5" d="M44,22.74h1.49a.6.6,0,0,0,0-1.2H44A.6.6,0,0,0,44,22.74Z"/><path class="cls-5" d="M45.66,21.09a.6.6,0,0,0,.85-.85l-1-1.06c-.54-.56-1.41.31-.85.85Z"/><path class="cls-5" d="M44.56,43.28a.6.6,0,0,0-.6.6v1.5a.6.6,0,0,0,1.2,0v-1.5A.6.6,0,0,0,44.56,43.28Z"/><path class="cls-5" d="M44.56,49a.6.6,0,0,0-.6.6v1.5a.6.6,0,0,0,1.2,0v-1.5A.6.6,0,0,0,44.56,49Z"/><path class="cls-5" d="M46,46.59a.6.6,0,0,0,.43-.18l1-1a.6.6,0,0,0-.85-.85l-1,1.05A.61.61,0,0,0,46,46.59Z"/><path class="cls-5" d="M48.14,46.86h-1.5a.6.6,0,0,0,0,1.2h1.5A.6.6,0,0,0,48.14,46.86Z"/><path class="cls-5" d="M46.46,48.52c-.54-.56-1.41.3-.85.84.27.21,1.11,1.31,1.48,1.23a.6.6,0,0,0,.42-1Z"/><path class="cls-5" d="M42.66,48.52l-1.06,1a.6.6,0,0,0,.43,1c.36.08,1.21-1,1.48-1.23C44.06,48.82,43.2,48,42.66,48.52Z"/><path class="cls-5" d="M43.07,47.46a.6.6,0,0,0-.6-.6H41a.6.6,0,0,0,0,1.2h1.49A.6.6,0,0,0,43.07,47.46Z"/><path class="cls-5" d="M42.45,44.51c-.54-.56-1.41.3-.85.85.27.2,1.11,1.3,1.48,1.23a.61.61,0,0,0,.43-1Z"/><path class="cls-5" d="M15.86,34a.6.6,0,0,0-.6.6v1.54a.6.6,0,0,0,1.2,0V34.63A.6.6,0,0,0,15.86,34Z"/><path class="cls-5" d="M15.86,40a.6.6,0,0,0-.6.6V42.1a.6.6,0,0,0,1.2,0V40.55A.6.6,0,0,0,15.86,40Z"/><path class="cls-5" d="M18.06,35.29,17,36.38a.61.61,0,0,0,.42,1c.36.08,1.26-1.07,1.52-1.27C19.47,35.6,18.6,34.73,18.06,35.29Z"/><path class="cls-5" d="M19.57,37.74H18a.6.6,0,0,0,0,1.2h1.54A.6.6,0,0,0,19.57,37.74Z"/><path class="cls-5" d="M17.82,39.45c-.54-.56-1.41.3-.85.84.27.21,1.15,1.35,1.52,1.27a.6.6,0,0,0,.42-1Z"/><path class="cls-5" d="M13.91,39.45l-1.1,1.09a.6.6,0,0,0,.43,1c.36.09,1.25-1.07,1.51-1.27A.59.59,0,0,0,13.91,39.45Z"/><path class="cls-5" d="M14.3,38.34a.6.6,0,0,0-.6-.6H12.15a.6.6,0,0,0,0,1.2H13.7A.6.6,0,0,0,14.3,38.34Z"/><path class="cls-5" d="M13.66,35.29c-.54-.56-1.41.31-.85.85l1.1,1.09a.58.58,0,0,0,.84,0,.59.59,0,0,0,0-.85Z"/><path class="cls-7" d="M37.57,41.82,26.91,31.16a.6.6,0,0,0-1,.16L24.4,34.51a.62.62,0,0,0,0,.53,4,4,0,0,0,2.54,1.73,2.69,2.69,0,0,1,1.5.79c1.25,1.31.46,2.16,1.92,3.58s2.27.67,3.58,1.92c.42.37.58,1.11,1.24.82l2.26-1.1A.59.59,0,0,0,37.57,41.82Z"/><path class="cls-7" d="M31.29,45.09c-1.05-1.16-2.15-.54-3.23-1.68-1.25-1.31-.46-2.16-1.92-3.57-1.15-1.17-1.86-.9-3-1.44a.64.64,0,0,0-.45,0,.73.73,0,0,0-.36.31l-1.74,3.59a.61.61,0,0,0,.38.83,2.56,2.56,0,0,1,1.16.71c1.25,1.31.46,2.16,1.93,3.57a3.76,3.76,0,0,0,1.58,1,.61.61,0,0,0,.58-.13L31,45.9A.63.63,0,0,0,31.29,45.09Z"/><path class="cls-7" d="M21.85,49.71c-1.19-1.32-.52-2.23-2-3.65a.84.84,0,0,0-.57-.31.64.64,0,0,0-.55.34l-2.91,6a.6.6,0,0,0,.8.8l4.9-2.38A.63.63,0,0,0,21.85,49.71Z"/><path d="M22.39,38.63,15.86,52.06a.61.61,0,0,0,.81.8l4.84-2.35h0L31,45.89h0l6.39-3.11a.6.6,0,0,0,.17-1L26.91,31.15a.6.6,0,0,0-1,.17l-3.56,7.31Zm2.68-2.77c1.31,1.2,2.14.53,3.34,1.7s.46,2.16,1.92,3.58,2.35.66,3.64,2l-3.19,1.55c-1.06-.63-1.76-.29-2.72-1.26a2.7,2.7,0,0,1-.8-1.51,3.82,3.82,0,0,0-1.12-2.06,4.32,4.32,0,0,0-2.41-1.22Zm-1.27,4a3,3,0,0,1,2.29,2.3,4.13,4.13,0,0,0,3.23,3.19l-3.56,1.73A3.05,3.05,0,0,1,24.14,45,4.29,4.29,0,0,0,22,42.2l1.21-2.49A5.69,5.69,0,0,0,23.8,39.89ZM21.46,49.2c-.68-1.08-.33-1.83-1.42-3l1.43-2.94a3,3,0,0,1,1.5,2,4.2,4.2,0,0,0,1.52,2.42Zm-2-1.78c.49.78.36,1.46.92,2.31L17.7,51Zm7.2-14.82,9.47,9.47-1,.51a4.15,4.15,0,0,0-2.4-1.49,2.73,2.73,0,0,1-1.51-.8c-1.25-1.31-.46-2.16-1.92-3.57s-2.37-.66-3.63-2Z"/><path d="M34.34,37.72a.61.61,0,0,0,.85,0,4.41,4.41,0,0,1,6.22,0,.6.6,0,1,0,.84-.85,5.59,5.59,0,0,0-7.91,0A.61.61,0,0,0,34.34,37.72Z"/><path d="M31.14,23.81a7,7,0,0,1,0,9.86.6.6,0,0,0,.85.85A8.18,8.18,0,0,0,32,23,.6.6,0,0,0,31.14,23.81Z"/><path d="M40.56,30.2a6.33,6.33,0,0,0-4.5,1.87.59.59,0,0,0,0,.85.61.61,0,0,0,.85,0,5.12,5.12,0,0,1,5.86-1,13.66,13.66,0,0,0-1.71-.05.6.6,0,0,0-.6.6.6.6,0,0,0,.6.6h1.5A.59.59,0,0,0,42.84,32a5,5,0,0,1,1.38,1,.6.6,0,0,0,.85-.85A6.37,6.37,0,0,0,40.56,30.2Z"/><path d="M28.18,31.55a.58.58,0,0,0,.84,0A3.2,3.2,0,0,0,29,27a.6.6,0,0,0-.84.85,2,2,0,0,1,0,2.84A.59.59,0,0,0,28.18,31.55Z"/><path d="M52.54,4.39h-3A2.4,2.4,0,0,0,47.1,3.32,2.18,2.18,0,0,0,44.92,5.5V8.39H34.47V5.5a2.3,2.3,0,0,0-2.75-2.18A2.19,2.19,0,0,0,29.54,5.5V8.39H19.09V5.5A2.19,2.19,0,0,0,16.9,3.32a2.44,2.44,0,0,0-2.43,1.07h-3A7.61,7.61,0,0,0,3.85,12V53.08a7.61,7.61,0,0,0,7.61,7.6H52.54a7.6,7.6,0,0,0,7.6-7.6V12A7.6,7.6,0,0,0,52.54,4.39ZM46.11,5.5c0-.88.81-1,1.55-1a1,1,0,0,1,1,1v7c0,.89-.81,1-1.55,1a1,1,0,0,1-1-1Zm-15.37,0c0-.89.8-1,1.54-1a1,1,0,0,1,1,1V9s0,0,0,0v3.48a1,1,0,0,1-1,1c-.74.06-1.51-.09-1.54-1Zm-1.2,4.09v2.89a2.3,2.3,0,0,0,2.74,2.19,2.19,2.19,0,0,0,2.19-2.19V9.59H44.92v2.89a2.3,2.3,0,0,0,2.74,2.19,2.18,2.18,0,0,0,2.18-2.19V9.59h2.7a2.4,2.4,0,0,1,2.4,2.4v4.34H9.05V12a2.41,2.41,0,0,1,2.4-2.4h2.71v2.89a2.3,2.3,0,0,0,2.74,2.19,2.19,2.19,0,0,0,2.19-2.19V9.59ZM9.05,17.53H54.94V53.08a2.4,2.4,0,0,1-2.4,2.4H11.45a2.41,2.41,0,0,1-2.4-2.4Zm6.31-12c0-.89.8-1,1.54-1a1,1,0,0,1,1,1V9a0,0,0,0,0,0,0v3.47a1,1,0,0,1-1,1c-.74.06-1.51-.09-1.54-1ZM59,53.08a6.41,6.41,0,0,1-6.41,6.4H11.46a6.41,6.41,0,0,1-6.4-6.4V12a6.41,6.41,0,0,1,6.4-6.4h2.7v2.8H11.45A3.6,3.6,0,0,0,7.85,12V53.08a3.61,3.61,0,0,0,3.6,3.6H52.54a3.6,3.6,0,0,0,3.6-3.6V16.94s0,0,0,0V12a3.6,3.6,0,0,0-3.6-3.6h-2.7V5.59h2.7A6.41,6.41,0,0,1,59,12Z"/><path d="M16.74,21.82a.6.6,0,0,0,.6-.6V19.73a.6.6,0,1,0-1.2,0v1.49A.6.6,0,0,0,16.74,21.82Z"/><path d="M16.74,27.53a.6.6,0,0,0,.6-.6V25.44a.6.6,0,0,0-1.2,0v1.49A.6.6,0,0,0,16.74,27.53Z"/><path d="M18.22,22.43a.59.59,0,0,0,.42-.18L19.7,21.2a.6.6,0,0,0-.85-.85l-1.06,1.06A.6.6,0,0,0,18.22,22.43Z"/><path d="M18.23,23.31a.6.6,0,0,0,.6.6h1.49a.6.6,0,0,0,.6-.6.6.6,0,0,0-.6-.6H18.83A.6.6,0,0,0,18.23,23.31Z"/><path d="M18.85,26.26a.6.6,0,0,0,.85-.85l-1.06-1.05c-.54-.56-1.41.3-.85.85Z"/><path d="M14.84,24.36l-1.05,1.05a.61.61,0,0,0,.42,1c.36.07,1.22-1,1.48-1.23A.6.6,0,0,0,14.84,24.36Z"/><path d="M13.16,23.91h1.49a.6.6,0,0,0,0-1.2H13.16A.6.6,0,0,0,13.16,23.91Z"/><path d="M14.84,22.25a.6.6,0,0,0,.85-.84l-1.06-1.06c-.54-.56-1.4.31-.84.85Z"/><path d="M32,21.84a.6.6,0,0,0,.6-.6V19.75a.6.6,0,0,0-1.2,0v1.49A.6.6,0,0,0,32,21.84Z"/><path d="M33.47,22.45a.63.63,0,0,0,.43-.17L35,21.22a.6.6,0,0,0,0-.85.61.61,0,0,0-.85,0l-1.06,1.06A.6.6,0,0,0,33.47,22.45Z"/><path d="M33.49,23.33a.6.6,0,0,0,.6.6h1.49a.6.6,0,0,0,0-1.2H34.09A.6.6,0,0,0,33.49,23.33Z"/><path d="M31,24.38a.61.61,0,0,0-.85,0L29,25.43a.61.61,0,0,0,0,.85.59.59,0,0,0,.85,0L31,25.23A.61.61,0,0,0,31,24.38Z"/><path d="M28.42,23.93h1.49a.6.6,0,0,0,0-1.2H28.42A.6.6,0,0,0,28.42,23.93Z"/><path d="M30.1,22.28a.6.6,0,0,0,.85-.85l-1.06-1.06c-.54-.55-1.41.31-.85.85Z"/><path d="M44.64,28.29a.6.6,0,0,0-.6.61v1.49a.6.6,0,1,0,1.2,0V28.9A.6.6,0,0,0,44.64,28.29Z"/><path d="M44.64,34a.6.6,0,0,0-.6.6v1.5a.6.6,0,1,0,1.2,0V34.6A.6.6,0,0,0,44.64,34Z"/><path d="M45.69,31.42a.59.59,0,0,0,.85,0l1.06-1.05a.61.61,0,0,0,0-.85.59.59,0,0,0-.85,0l-1.06,1.05A.61.61,0,0,0,45.69,31.42Z"/><path d="M46.13,32.47a.6.6,0,0,0,.6.6h1.49a.6.6,0,0,0,.6-.6.6.6,0,0,0-.6-.6H46.73A.6.6,0,0,0,46.13,32.47Z"/><path d="M47.6,34.58l-1.06-1c-.54-.56-1.4.3-.85.84l1.06,1.06A.6.6,0,0,0,47.6,34.58Z"/><path d="M42.54,35.43l1.05-1.06c.56-.54-.3-1.4-.85-.84l-1.05,1A.6.6,0,0,0,42.54,35.43Z"/><path d="M41.19,39.83s0,0,0-.06,0,1.1,0,1.15a.6.6,0,1,0,1.2,0s0-1.14,0-1.15a.21.21,0,0,0,0,.06l.75.75a.59.59,0,0,0,.84,0c.54-.59-.25-1.07-.79-1.62h1.11a.6.6,0,0,0,.6-.6c0-.83-1.13-.56-1.65-.6a.59.59,0,0,0-.38,1.05.59.59,0,0,0-.64.69.58.58,0,0,0-.92,0,.58.58,0,0,0-.64-.68.6.6,0,0,0-.38-1.06h-1a.6.6,0,0,0,0,1.2h1.11c-.54.55-1.33,1-.79,1.63S40.8,40.16,41.19,39.83Z"/><path d="M47.56,20.65a.6.6,0,0,0,.6-.6V18.56a.6.6,0,0,0-.6-.6.6.6,0,0,0-.6.6v1.49A.6.6,0,0,0,47.56,20.65Z"/><path d="M47.56,26.36a.6.6,0,0,0,.6-.6V24.27a.6.6,0,0,0-.6-.6.6.6,0,0,0-.6.6v1.49A.6.6,0,0,0,47.56,26.36Z"/><path d="M49,21.26a.65.65,0,0,0,.43-.17L50.52,20a.6.6,0,0,0-.85-.85l-1.05,1.06A.6.6,0,0,0,49,21.26Z"/><path d="M49.05,22.14a.6.6,0,0,0,.6.6h1.49a.6.6,0,0,0,0-1.2H49.65A.6.6,0,0,0,49.05,22.14Z"/><path d="M49.67,25.09a.6.6,0,0,0,.85-.84l-1.05-1.06c-.55-.56-1.41.31-.85.85Z"/><path d="M46.51,23.19a.61.61,0,0,0-.85,0l-1,1.06a.6.6,0,1,0,.85.84l1-1.05A.59.59,0,0,0,46.51,23.19Z"/><path d="M44,22.74h1.49a.6.6,0,0,0,0-1.2H44A.6.6,0,0,0,44,22.74Z"/><path d="M45.66,21.09a.6.6,0,0,0,.85-.85l-1-1.06c-.54-.56-1.41.31-.85.85Z"/><path d="M39.18,25.27a.6.6,0,0,0,.6-.6c-.07-.65.29-1.86-.6-1.89a.6.6,0,0,0-.6.6C38.65,24,38.29,25.24,39.18,25.27Z"/><path d="M39.18,30.19a.6.6,0,0,0,.6-.6c-.07-.65.29-1.86-.6-1.89a.6.6,0,0,0-.6.6C38.65,29,38.29,30.16,39.18,30.19Z"/><path d="M40.45,25.79c.38.06,1.08-.88,1.33-1.08.56-.54-.3-1.41-.84-.85l-.91.91A.6.6,0,0,0,40.45,25.79Z"/><path d="M40.38,26.47a.6.6,0,0,0,.6.6c.64-.07,1.85.28,1.88-.6a.6.6,0,0,0-.6-.6C41.62,25.93,40.41,25.58,40.38,26.47Z"/><path d="M40.94,29.07a.6.6,0,0,0,.84-.85l-.9-.91c-.55-.55-1.41.31-.85.85Z"/><path d="M36.58,28.22a.6.6,0,0,0,.84.85l.91-.91c.56-.54-.3-1.41-.85-.85Z"/><path d="M37.38,25.87H36.1a.59.59,0,0,0-.6.6c0,.88,1.24.53,1.88.6A.6.6,0,0,0,37.38,25.87Z"/><path d="M37.48,25.62a.6.6,0,0,0,.85-.85l-.91-.91c-.54-.56-1.4.31-.84.85Z"/><path d="M26,27.38l-1.06,1.06a.6.6,0,0,0,.43,1c.36.08,1.22-1,1.48-1.23C27.39,27.69,26.53,26.82,26,27.38Z"/><path d="M24.3,26.92h1.49a.59.59,0,0,0,.6-.6.6.6,0,0,0-.6-.6H24.3A.6.6,0,0,0,24.3,26.92Z"/><path d="M26,25.27a.6.6,0,0,0,.85-.85l-1.06-1.06c-.54-.56-1.4.3-.85.85Z"/><path d="M44.56,43.28a.6.6,0,0,0-.6.6v1.5a.6.6,0,0,0,1.2,0v-1.5A.6.6,0,0,0,44.56,43.28Z"/><path d="M44.56,49a.6.6,0,0,0-.6.6v1.5a.6.6,0,0,0,1.2,0v-1.5A.6.6,0,0,0,44.56,49Z"/><path d="M46.66,44.51l-1,1.05a.61.61,0,0,0,.42,1c.37.08,1.22-1,1.48-1.23A.6.6,0,0,0,46.66,44.51Z"/><path d="M48.14,46.86h-1.5a.6.6,0,0,0,0,1.2h1.5A.6.6,0,0,0,48.14,46.86Z"/><path d="M46.46,48.52c-.54-.56-1.41.3-.85.84.27.21,1.11,1.31,1.48,1.23a.6.6,0,0,0,.42-1Z"/><path d="M42.66,48.52l-1.06,1a.6.6,0,0,0,.43,1c.36.08,1.21-1,1.48-1.23C44.06,48.82,43.2,48,42.66,48.52Z"/><path d="M43.07,47.46a.6.6,0,0,0-.6-.6H41a.6.6,0,0,0,0,1.2h1.49A.6.6,0,0,0,43.07,47.46Z"/><path d="M42.45,44.51c-.54-.56-1.41.3-.85.85.27.2,1.11,1.3,1.48,1.23a.61.61,0,0,0,.43-1Z"/><path d="M15.26,34.63v1.54a.6.6,0,0,0,1.2,0V34.63A.6.6,0,0,0,15.26,34.63Z"/><path d="M16.46,42.1V40.55a.6.6,0,0,0-1.2,0V42.1A.6.6,0,0,0,16.46,42.1Z"/><path d="M18.06,35.29,17,36.38a.61.61,0,0,0,.42,1c.36.08,1.26-1.07,1.52-1.27C19.47,35.6,18.6,34.73,18.06,35.29Z"/><path d="M17.43,38.34a.6.6,0,0,0,.6.6h1.54a.6.6,0,1,0,0-1.2H18A.6.6,0,0,0,17.43,38.34Z"/><path d="M17,40.29l1.09,1.1a.6.6,0,0,0,.85-.85l-1.09-1.09C17.28,38.89,16.41,39.75,17,40.29Z"/><path d="M13.91,39.45l-1.1,1.09a.6.6,0,0,0,.43,1c.36.09,1.25-1.07,1.51-1.27A.59.59,0,0,0,13.91,39.45Z"/><path d="M12.15,38.94H13.7a.6.6,0,0,0,0-1.2H12.15A.6.6,0,0,0,12.15,38.94Z"/><path d="M13.66,35.29c-.54-.56-1.41.31-.85.85l1.1,1.09a.58.58,0,0,0,.84,0,.59.59,0,0,0,0-.85Z"/></g></svg>