<svg xmlns="http://www.w3.org/2000/svg"  
viewBox="0 0 100 100" 
width="100px" 
height="100px">
<path fill="#a1d3a2" d="M69,82H31c-7.18,0-13-5.82-13-13V31c0-7.18,5.82-13,13-13h38c7.18,0,13,5.82,13,13v38	C82,76.18,76.18,82,69,82z"/><path fill="#1f212b" d="M69,83H31c-7.72,0-14-6.28-14-14V31c0-7.72,6.28-14,14-14h38c7.72,0,14,6.28,14,14v38	C83,76.72,76.72,83,69,83z M31,19c-6.617,0-12,5.383-12,12v38c0,6.617,5.383,12,12,12h38c6.617,0,12-5.383,12-12V31	c0-6.617-5.383-12-12-12H31z"/><path fill="#fff" d="M71.5,47.534c0-9.391-9.642-17.034-21.49-17.034s-21.49,7.643-21.49,17.034	c0,8.418,7.644,15.467,17.971,16.802C47.192,64.483,48.5,64.5,48.5,66s-1,2.5-1,3.5c0,0.5,0.5,1,1,1	c3.5,0,13.883-7.421,18.392-12.49C70.008,54.676,71.5,51.29,71.5,47.534z"/><path fill="#1f212b" d="M48.5,71c-0.771,0-1.5-0.729-1.5-1.5c0-0.557,0.228-1.063,0.468-1.599C47.73,67.32,48,66.719,48,66	c0-0.809-0.422-0.969-1.317-1.121c-0.105-0.018-0.205-0.035-0.295-0.054C35.761,63.453,28.02,56.178,28.02,47.534	C28.02,37.866,37.884,30,50.01,30S72,37.866,72,47.534c0,3.865-1.551,7.403-4.743,10.818C63.031,63.104,52.371,71,48.5,71z M50.01,31c-11.574,0-20.99,7.417-20.99,16.534c0,8.135,7.375,14.993,17.535,16.307c0.117,0.023,0.204,0.038,0.296,0.053	C47.548,64.012,49,64.258,49,66c0,0.933-0.329,1.665-0.62,2.311C48.176,68.766,48,69.158,48,69.5c0,0.224,0.276,0.5,0.5,0.5	c3.34,0,13.591-7.345,18.019-12.322C69.579,54.403,71,51.183,71,47.534C71,38.417,61.584,31,50.01,31z"/><path fill="#1f212b" d="M66.5,78h-33C27.159,78,22,72.841,22,66.5v-33C22,27.159,27.159,22,33.5,22h33	c0.353,0,0.7,0.021,1.045,0.053c0.275,0.025,0.478,0.268,0.453,0.543c-0.025,0.275-0.27,0.479-0.543,0.453	C67.14,23.021,66.823,23,66.5,23h-33C27.71,23,23,27.71,23,33.5v33C23,72.29,27.71,77,33.5,77h33C72.29,77,77,72.29,77,66.5v-17	c0-0.276,0.224-0.5,0.5-0.5s0.5,0.224,0.5,0.5v17C78,72.841,72.841,78,66.5,78z"/><path fill="#1f212b" d="M77.5,40c-0.276,0-0.5-0.224-0.5-0.5v-2c0-0.276,0.224-0.5,0.5-0.5s0.5,0.224,0.5,0.5v2	C78,39.776,77.776,40,77.5,40z"/><path fill="#1f212b" d="M77.5,47c-0.276,0-0.5-0.224-0.5-0.5v-4c0-0.276,0.224-0.5,0.5-0.5s0.5,0.224,0.5,0.5v4	C78,46.776,77.776,47,77.5,47z"/><path fill="#1f212b" d="M42,54h-5c-0.552,0-1-0.448-1-1V43c0-0.552,0.448-1,1-1s1,0.448,1,1v9h4c0.552,0,1,0.448,1,1	S42.552,54,42,54z"/><path fill="#1f212b" d="M45,54c-0.552,0-1-0.448-1-1V43c0-0.552,0.448-1,1-1s1,0.448,1,1v10C46,53.552,45.552,54,45,54z"/><path fill="#1f212b" d="M55,54c-0.345,0-0.673-0.179-0.857-0.485L50,46.61V53c0,0.552-0.448,1-1,1s-1-0.448-1-1V43	c0-0.45,0.3-0.844,0.733-0.964c0.437-0.118,0.894,0.064,1.125,0.449L54,49.39V43c0-0.552,0.448-1,1-1s1,0.448,1,1v10	c0,0.45-0.3,0.844-0.733,0.964C55.178,53.988,55.088,54,55,54z"/><path fill="#1f212b" d="M64,52h-4v-3h3c0.552,0,1-0.448,1-1s-0.448-1-1-1h-3v-3h4c0.552,0,1-0.448,1-1s-0.448-1-1-1h-5	c-0.552,0-1,0.448-1,1v10c0,0.552,0.448,1,1,1h5c0.552,0,1-0.448,1-1S64.552,52,64,52z"/></svg>