<?xml version="1.0" encoding="utf-8"?>
<!-- Generator: Adobe Illustrator 26.2.1, SVG Export Plug-In . SVG Version: 6.00 Build 0)  -->
<svg version="1.1" id="레이어_1" focusable="false"
	 xmlns="http://www.w3.org/2000/svg" xmlns:xlink="http://www.w3.org/1999/xlink" x="0px" y="0px" viewBox="0 0 448 512"
	 style="enable-background:new 0 0 448 512;" xml:space="preserve">
<style type="text/css">
	.st0{fill:#222A34;}
	.st1{fill:none;}
	.st2{fill:#FFFFFF;stroke:#222A34;stroke-miterlimit:10;}
</style>
<path class="st0" d="M306.1,450.3H137c-56.3,0-102-45.7-102-102v-183c0-56.3,45.7-102,102-102h169.1c56.3,0,102,45.7,102,102v183
	C408.1,404.7,362.4,450.3,306.1,450.3z"/>
<g>
	
		<ellipse transform="matrix(0.7071 -0.7071 0.7071 0.7071 -115.3113 233.414)" class="st1" cx="224.1" cy="255.9" rx="74.7" ry="74.7"/>
	<path class="st1" d="M398.8,123.8c-7.9-19.7-23-34.8-42.6-42.6c-29.4-11.6-99.5-9-132.1-9c-32.6,0-102.6-2.7-132.1,9
		c-19.7,7.9-34.8,23-42.6,42.6c-11.6,29.4-9,99.5-9,132.1c0,32.6-2.7,102.6,9,132.1c7.9,19.7,23,34.8,42.6,42.6
		c29.4,11.6,99.5,9,132.1,9c32.6,0,102.6,2.7,132.1-9c19.7-7.9,34.8-23,42.6-42.6c11.7-29.4,9-99.5,9-132.1
		C407.8,223.3,410.5,153.3,398.8,123.8z M224.1,370.8c-63.6,0-114.9-51.3-114.9-114.9S160.5,141,224.1,141S339,192.3,339,255.9
		S287.7,370.8,224.1,370.8z M343.7,163.1c-14.9,0-26.8-12-26.8-26.8s12-26.8,26.8-26.8s26.8,12,26.8,26.8
		C370.5,151.2,358.5,163.1,343.7,163.1z"/>
	<circle class="st2" cx="343.7" cy="136.3" r="26.8"/>
	<path class="st2" d="M446.6,163.5c-1.7-35.9-9.9-67.7-36.2-93.9c-26.2-26.2-58-34.4-93.9-36.2c-37-2.1-147.9-2.1-184.9,0
		C95.8,35.1,64,43.3,37.7,69.5s-34.4,58-36.2,93.9c-2.1,37-2.1,147.9,0,184.9c1.7,35.9,9.9,67.7,36.2,93.9
		c26.3,26.2,58,34.4,93.9,36.2c37,2.1,147.9,2.1,184.9,0c35.9-1.7,67.7-9.9,93.9-36.2c26.2-26.2,34.4-58,36.2-93.9
		C448.7,311.3,448.7,200.5,446.6,163.5z M398.8,388c-7.8,19.6-22.9,34.7-42.6,42.6c-29.5,11.7-99.5,9-132.1,9
		c-32.6,0-102.7,2.6-132.1-9c-19.6-7.8-34.7-22.9-42.6-42.6c-11.7-29.5-9-99.5-9-132.1c0-32.6-2.6-102.7,9-132.1
		c7.8-19.6,22.9-34.7,42.6-42.6c29.5-11.7,99.5-9,132.1-9c32.6,0,102.7-2.6,132.1,9c19.6,7.8,34.7,22.9,42.6,42.6
		c11.7,29.5,9,99.5,9,132.1C407.8,288.5,410.5,358.6,398.8,388z"/>
	<path class="st2" d="M224.1,141c-63.6,0-114.9,51.3-114.9,114.9s51.3,114.9,114.9,114.9S339,319.5,339,255.9S287.7,141,224.1,141z
		 M224.1,330.6c-41.1,0-74.7-33.5-74.7-74.7c0-41.2,33.5-74.7,74.7-74.7c41.2,0,74.7,33.5,74.7,74.7
		C298.8,297.1,265.2,330.6,224.1,330.6z"/>
</g>
<g>
	<path class="st2" d="M97.8,390.6v8.1h12.6v7.5H97.8v15.6h-8.5v-38.6h23.2v7.5H97.8V390.6z"/>
	<path class="st2" d="M115.5,402.5c0-10.9,8.9-19.8,19.8-19.8c11,0,19.8,8.9,19.8,19.8s-8.8,19.8-19.8,19.8
		C124.4,422.3,115.5,413.4,115.5,402.5z M146.9,402.5c0-6.5-5-11.5-11.5-11.5s-11.4,5-11.4,11.5s5,11.5,11.4,11.5
		C141.9,414,146.9,409,146.9,402.5z"/>
	<path class="st2" d="M192.3,421.8h-9.5l-9.5-14.9h-3.4v14.9h-8.5v-38.6h16.4c6.6,0,11.5,5.3,11.5,11.8c0,5.3-3.2,9.5-7.8,10.9
		L192.3,421.8z M181.2,395.3c0-2.6-2-4.6-4.7-4.6h-6.6v9.1h6.6C179.2,399.8,181.2,398,181.2,395.3z"/>
	<path class="st2" d="M254,383.2v38.6h-8.5v-23l-10.5,23h-4.9l-10.4-23v23h-8.5v-38.6h9.2l12.2,26.7l12.3-26.7H254z"/>
	<path class="st2" d="M270.4,390.6v8.1H283v7.5h-12.6v8.1h14.7v7.5h-23.2v-38.6h23.2v7.5h-14.7V390.6z"/>
	<path class="st2" d="M327.7,383.2v38.6H319l-19-25.6v25.6h-8.5v-38.6h8.7l19,25.5v-25.5H327.7z"/>
	<path class="st2" d="M332.6,413.7l7-4.4c1.4,3,4.2,5,7.7,5c3,0,4.8-1.4,4.8-3.5c0-6.8-17.8-3.6-17.8-16.7c0-7.7,6.2-11.4,12.3-11.4
		c4.8,0,9.1,2.2,11.9,5.5l-5.7,5.4c-1.9-2.1-4.1-3.3-6.3-3.3c-2.1,0-3.7,1-3.7,3.2c0,6.7,17.7,3.2,17.7,17.4
		c0,7.2-6.1,11.4-13.3,11.4C340.5,422.3,335.1,418.5,332.6,413.7z"/>
</g>
</svg>
